<?xml version="1.0" standalone="no"?><!DOCTYPE svg PUBLIC "-//W3C//DTD SVG 1.1//EN" "http://www.w3.org/Graphics/SVG/1.1/DTD/svg11.dtd"><svg t="1715133728057" class="icon" viewBox="0 0 1024 1024" version="1.1" xmlns="http://www.w3.org/2000/svg" p-id="9910" xmlns:xlink="http://www.w3.org/1999/xlink" width="32" height="32"><path d="M511.910972 276.347866c43.753024 0 79.233262-35.478281 79.233261-79.237175 0-43.760851-35.480237-79.241088-79.233261-79.241088-43.760851 0-79.239132 35.480237-79.239132 79.241088 0 43.758894 35.478281 79.237175 79.239132 79.237175z m0 158.476307c-43.760851 0-79.239132 35.482194-79.239132 79.239132 0 43.762808 35.478281 79.237175 79.239132 79.237175 43.753024 0 79.233262-35.474367 79.233261-79.237175 0-43.756938-35.480237-79.239132-79.233261-79.239132z m0 316.956527c-43.760851 0-79.239132 35.437191-79.239132 79.237176 0 43.756938 35.478281 79.237175 79.239132 79.237175 43.753024 0 79.233262-35.480237 79.233261-79.237175 0-43.799984-35.480237-79.237175-79.233261-79.237176z" fill="#707070" p-id="9911" data-spm-anchor-id="a313x.search_index.0.i6.50b43a81F0ncfM" class=""></path></svg>